<svg xmlns="http://www.w3.org/2000/svg" version="1.1" xmlns:xlink="http://www.w3.org/1999/xlink" xmlns:svgjs="http://svgjs.com/svgjs" width="1440" height="560" preserveAspectRatio="none" viewBox="0 0 1440 560"><g mask="url(&quot;#SvgjsMask1000&quot;)" fill="none"><rect width="1440" height="560" x="0" y="0" fill="#0e2a47"></rect><path d="M149.5 162.88L214.45 200.38L214.45 275.38L149.5 312.88L84.54 275.38L84.54 200.38zM149.5 387.88L214.45 425.38L214.45 500.38L149.5 537.88L84.54 500.38L84.54 425.38zM214.45 500.38L279.4 537.88L279.4 612.88L214.45 650.38L149.5 612.88L149.5 537.88zM279.4 -62.12L344.36 -24.62L344.36 50.38L279.4 87.88L214.45 50.38L214.45 -24.62zM474.27 50.38L539.22 87.88L539.22 162.88L474.27 200.38L409.31 162.88L409.31 87.88zM409.31 387.88L474.27 425.38L474.27 500.38L409.31 537.88L344.36 500.38L344.36 425.38zM604.17 50.38L669.13 87.88L669.13 162.88L604.17 200.38L539.22 162.88L539.22 87.88zM539.22 387.88L604.17 425.38L604.17 500.38L539.22 537.88L474.27 500.38L474.27 425.38zM669.13 387.88L734.08 425.38L734.08 500.38L669.13 537.88L604.17 500.38L604.17 425.38zM863.99 50.38L928.94 87.88L928.94 162.88L863.99 200.38L799.03 162.88L799.03 87.88zM863.99 275.38L928.94 312.88L928.94 387.88L863.99 425.38L799.03 387.88L799.03 312.88zM1058.85 -62.12L1123.8 -24.62L1123.8 50.38L1058.85 87.88L993.9 50.38L993.9 -24.62zM1123.8 275.38L1188.76 312.88L1188.76 387.88L1123.8 425.38L1058.85 387.88L1058.85 312.88zM1058.85 387.88L1123.8 425.38L1123.8 500.38L1058.85 537.88L993.9 500.38L993.9 425.38zM1253.71 50.38L1318.66 87.88L1318.66 162.88L1253.71 200.38L1188.76 162.88L1188.76 87.88zM1188.76 162.88L1253.71 200.38L1253.71 275.38L1188.76 312.88L1123.8 275.38L1123.8 200.38zM1383.62 275.38L1448.57 312.88L1448.57 387.88L1383.62 425.38L1318.66 387.88L1318.66 312.88zM1513.53 50.38L1578.48 87.88L1578.48 162.88L1513.53 200.38L1448.57 162.88L1448.57 87.88zM1448.57 387.88L1513.53 425.38L1513.53 500.38L1448.57 537.88L1383.62 500.38L1383.62 425.38z" stroke="#03305d" stroke-width="2"></path><path d="M142 162.88 a7.5 7.5 0 1 0 15 0 a7.5 7.5 0 1 0 -15 0zM206.95 200.38 a7.5 7.5 0 1 0 15 0 a7.5 7.5 0 1 0 -15 0zM206.95 275.38 a7.5 7.5 0 1 0 15 0 a7.5 7.5 0 1 0 -15 0zM142 312.88 a7.5 7.5 0 1 0 15 0 a7.5 7.5 0 1 0 -15 0zM77.04 275.38 a7.5 7.5 0 1 0 15 0 a7.5 7.5 0 1 0 -15 0zM77.04 200.38 a7.5 7.5 0 1 0 15 0 a7.5 7.5 0 1 0 -15 0zM142 387.88 a7.5 7.5 0 1 0 15 0 a7.5 7.5 0 1 0 -15 0zM206.95 425.38 a7.5 7.5 0 1 0 15 0 a7.5 7.5 0 1 0 -15 0zM206.95 500.38 a7.5 7.5 0 1 0 15 0 a7.5 7.5 0 1 0 -15 0zM142 537.88 a7.5 7.5 0 1 0 15 0 a7.5 7.5 0 1 0 -15 0zM77.04 500.38 a7.5 7.5 0 1 0 15 0 a7.5 7.5 0 1 0 -15 0zM77.04 425.38 a7.5 7.5 0 1 0 15 0 a7.5 7.5 0 1 0 -15 0zM271.9 537.88 a7.5 7.5 0 1 0 15 0 a7.5 7.5 0 1 0 -15 0zM271.9 612.88 a7.5 7.5 0 1 0 15 0 a7.5 7.5 0 1 0 -15 0zM206.95 650.38 a7.5 7.5 0 1 0 15 0 a7.5 7.5 0 1 0 -15 0zM142 612.88 a7.5 7.5 0 1 0 15 0 a7.5 7.5 0 1 0 -15 0zM271.9 -62.12 a7.5 7.5 0 1 0 15 0 a7.5 7.5 0 1 0 -15 0zM336.86 -24.62 a7.5 7.5 0 1 0 15 0 a7.5 7.5 0 1 0 -15 0zM336.86 50.38 a7.5 7.5 0 1 0 15 0 a7.5 7.5 0 1 0 -15 0zM271.9 87.88 a7.5 7.5 0 1 0 15 0 a7.5 7.5 0 1 0 -15 0zM206.95 50.38 a7.5 7.5 0 1 0 15 0 a7.5 7.5 0 1 0 -15 0zM206.95 -24.62 a7.5 7.5 0 1 0 15 0 a7.5 7.5 0 1 0 -15 0zM466.77 50.38 a7.5 7.5 0 1 0 15 0 a7.5 7.5 0 1 0 -15 0zM531.72 87.88 a7.5 7.5 0 1 0 15 0 a7.5 7.5 0 1 0 -15 0zM531.72 162.88 a7.5 7.5 0 1 0 15 0 a7.5 7.5 0 1 0 -15 0zM466.77 200.38 a7.5 7.5 0 1 0 15 0 a7.5 7.5 0 1 0 -15 0zM401.81 162.88 a7.5 7.5 0 1 0 15 0 a7.5 7.5 0 1 0 -15 0zM401.81 87.88 a7.5 7.5 0 1 0 15 0 a7.5 7.5 0 1 0 -15 0zM401.81 387.88 a7.5 7.5 0 1 0 15 0 a7.5 7.5 0 1 0 -15 0zM466.77 425.38 a7.5 7.5 0 1 0 15 0 a7.5 7.5 0 1 0 -15 0zM466.77 500.38 a7.5 7.5 0 1 0 15 0 a7.5 7.5 0 1 0 -15 0zM401.81 537.88 a7.5 7.5 0 1 0 15 0 a7.5 7.5 0 1 0 -15 0zM336.86 500.38 a7.5 7.5 0 1 0 15 0 a7.5 7.5 0 1 0 -15 0zM336.86 425.38 a7.5 7.5 0 1 0 15 0 a7.5 7.5 0 1 0 -15 0zM596.67 50.38 a7.5 7.5 0 1 0 15 0 a7.5 7.5 0 1 0 -15 0zM661.63 87.88 a7.5 7.5 0 1 0 15 0 a7.5 7.5 0 1 0 -15 0zM661.63 162.88 a7.5 7.5 0 1 0 15 0 a7.5 7.5 0 1 0 -15 0zM596.67 200.38 a7.5 7.5 0 1 0 15 0 a7.5 7.5 0 1 0 -15 0zM531.72 387.88 a7.5 7.5 0 1 0 15 0 a7.5 7.5 0 1 0 -15 0zM596.67 425.38 a7.5 7.5 0 1 0 15 0 a7.5 7.5 0 1 0 -15 0zM596.67 500.38 a7.5 7.5 0 1 0 15 0 a7.5 7.5 0 1 0 -15 0zM531.72 537.88 a7.5 7.5 0 1 0 15 0 a7.5 7.5 0 1 0 -15 0zM661.63 387.88 a7.5 7.5 0 1 0 15 0 a7.5 7.5 0 1 0 -15 0zM726.58 425.38 a7.5 7.5 0 1 0 15 0 a7.5 7.5 0 1 0 -15 0zM726.58 500.38 a7.5 7.5 0 1 0 15 0 a7.5 7.5 0 1 0 -15 0zM661.63 537.88 a7.5 7.5 0 1 0 15 0 a7.5 7.5 0 1 0 -15 0zM856.49 50.38 a7.5 7.5 0 1 0 15 0 a7.5 7.5 0 1 0 -15 0zM921.44 87.88 a7.5 7.5 0 1 0 15 0 a7.5 7.5 0 1 0 -15 0zM921.44 162.88 a7.5 7.5 0 1 0 15 0 a7.5 7.5 0 1 0 -15 0zM856.49 200.38 a7.5 7.5 0 1 0 15 0 a7.5 7.5 0 1 0 -15 0zM791.53 162.88 a7.5 7.5 0 1 0 15 0 a7.5 7.5 0 1 0 -15 0zM791.53 87.88 a7.5 7.5 0 1 0 15 0 a7.5 7.5 0 1 0 -15 0zM856.49 275.38 a7.5 7.5 0 1 0 15 0 a7.5 7.5 0 1 0 -15 0zM921.44 312.88 a7.5 7.5 0 1 0 15 0 a7.5 7.5 0 1 0 -15 0zM921.44 387.88 a7.5 7.5 0 1 0 15 0 a7.5 7.5 0 1 0 -15 0zM856.49 425.38 a7.5 7.5 0 1 0 15 0 a7.5 7.5 0 1 0 -15 0zM791.53 387.88 a7.5 7.5 0 1 0 15 0 a7.5 7.5 0 1 0 -15 0zM791.53 312.88 a7.5 7.5 0 1 0 15 0 a7.5 7.5 0 1 0 -15 0zM1051.35 -62.12 a7.5 7.5 0 1 0 15 0 a7.5 7.5 0 1 0 -15 0zM1116.3 -24.62 a7.5 7.5 0 1 0 15 0 a7.5 7.5 0 1 0 -15 0zM1116.3 50.38 a7.5 7.5 0 1 0 15 0 a7.5 7.5 0 1 0 -15 0zM1051.35 87.88 a7.5 7.5 0 1 0 15 0 a7.5 7.5 0 1 0 -15 0zM986.4 50.38 a7.5 7.5 0 1 0 15 0 a7.5 7.5 0 1 0 -15 0zM986.4 -24.62 a7.5 7.5 0 1 0 15 0 a7.5 7.5 0 1 0 -15 0zM1116.3 275.38 a7.5 7.5 0 1 0 15 0 a7.5 7.5 0 1 0 -15 0zM1181.26 312.88 a7.5 7.5 0 1 0 15 0 a7.5 7.5 0 1 0 -15 0zM1181.26 387.88 a7.5 7.5 0 1 0 15 0 a7.5 7.5 0 1 0 -15 0zM1116.3 425.38 a7.5 7.5 0 1 0 15 0 a7.5 7.5 0 1 0 -15 0zM1051.35 387.88 a7.5 7.5 0 1 0 15 0 a7.5 7.5 0 1 0 -15 0zM1051.35 312.88 a7.5 7.5 0 1 0 15 0 a7.5 7.5 0 1 0 -15 0zM1116.3 500.38 a7.5 7.5 0 1 0 15 0 a7.5 7.5 0 1 0 -15 0zM1051.35 537.88 a7.5 7.5 0 1 0 15 0 a7.5 7.5 0 1 0 -15 0zM986.4 500.38 a7.5 7.5 0 1 0 15 0 a7.5 7.5 0 1 0 -15 0zM986.4 425.38 a7.5 7.5 0 1 0 15 0 a7.5 7.5 0 1 0 -15 0zM1246.21 50.38 a7.5 7.5 0 1 0 15 0 a7.5 7.5 0 1 0 -15 0zM1311.16 87.88 a7.5 7.5 0 1 0 15 0 a7.5 7.5 0 1 0 -15 0zM1311.16 162.88 a7.5 7.5 0 1 0 15 0 a7.5 7.5 0 1 0 -15 0zM1246.21 200.38 a7.5 7.5 0 1 0 15 0 a7.5 7.5 0 1 0 -15 0zM1181.26 162.88 a7.5 7.5 0 1 0 15 0 a7.5 7.5 0 1 0 -15 0zM1181.26 87.88 a7.5 7.5 0 1 0 15 0 a7.5 7.5 0 1 0 -15 0zM1246.21 275.38 a7.5 7.5 0 1 0 15 0 a7.5 7.5 0 1 0 -15 0zM1116.3 200.38 a7.5 7.5 0 1 0 15 0 a7.5 7.5 0 1 0 -15 0zM1376.12 275.38 a7.5 7.5 0 1 0 15 0 a7.5 7.5 0 1 0 -15 0zM1441.07 312.88 a7.5 7.5 0 1 0 15 0 a7.5 7.5 0 1 0 -15 0zM1441.07 387.88 a7.5 7.5 0 1 0 15 0 a7.5 7.5 0 1 0 -15 0zM1376.12 425.38 a7.5 7.5 0 1 0 15 0 a7.5 7.5 0 1 0 -15 0zM1311.16 387.88 a7.5 7.5 0 1 0 15 0 a7.5 7.5 0 1 0 -15 0zM1311.16 312.88 a7.5 7.5 0 1 0 15 0 a7.5 7.5 0 1 0 -15 0zM1506.03 50.38 a7.5 7.5 0 1 0 15 0 a7.5 7.5 0 1 0 -15 0zM1570.98 87.88 a7.5 7.5 0 1 0 15 0 a7.5 7.5 0 1 0 -15 0zM1570.98 162.88 a7.5 7.5 0 1 0 15 0 a7.5 7.5 0 1 0 -15 0zM1506.03 200.38 a7.5 7.5 0 1 0 15 0 a7.5 7.5 0 1 0 -15 0zM1441.07 162.88 a7.5 7.5 0 1 0 15 0 a7.5 7.5 0 1 0 -15 0zM1441.07 87.88 a7.5 7.5 0 1 0 15 0 a7.5 7.5 0 1 0 -15 0zM1506.03 425.38 a7.5 7.5 0 1 0 15 0 a7.5 7.5 0 1 0 -15 0zM1506.03 500.38 a7.5 7.5 0 1 0 15 0 a7.5 7.5 0 1 0 -15 0zM1441.07 537.88 a7.5 7.5 0 1 0 15 0 a7.5 7.5 0 1 0 -15 0zM1376.12 500.38 a7.5 7.5 0 1 0 15 0 a7.5 7.5 0 1 0 -15 0z" fill="#03305d"></path><path d="M45.22 145.88L88.52 170.88L88.52 220.88L45.22 245.88L1.92 220.88L1.92 170.88zM45.22 295.88L88.52 320.88L88.52 370.88L45.22 395.88L1.92 370.88L1.92 320.88zM88.52 370.88L131.82 395.88L131.82 445.88L88.52 470.88L45.22 445.88L45.22 395.88zM175.13 70.88L218.43 95.88L218.43 145.88L175.13 170.88L131.82 145.88L131.82 95.88zM131.82 145.88L175.13 170.88L175.13 220.88L131.82 245.88L88.52 220.88L88.52 170.88zM175.13 220.88L218.43 245.88L218.43 295.88L175.13 320.88L131.82 295.88L131.82 245.88zM218.43 -4.12L261.73 20.88L261.73 70.88L218.43 95.88L175.13 70.88L175.13 20.88zM348.34 220.88L391.64 245.88L391.64 295.88L348.34 320.88L305.03 295.88L305.03 245.88zM305.03 295.88L348.34 320.88L348.34 370.88L305.03 395.88L261.73 370.88L261.73 320.88zM305.03 445.88L348.34 470.88L348.34 520.88L305.03 545.88L261.73 520.88L261.73 470.88zM434.94 370.88L478.25 395.88L478.25 445.88L434.94 470.88L391.64 445.88L391.64 395.88zM521.55 70.88L564.85 95.88L564.85 145.88L521.55 170.88L478.25 145.88L478.25 95.88zM521.55 220.88L564.85 245.88L564.85 295.88L521.55 320.88L478.25 295.88L478.25 245.88zM564.85 145.88L608.15 170.88L608.15 220.88L564.85 245.88L521.55 220.88L521.55 170.88zM608.15 520.88L651.46 545.88L651.46 595.88L608.15 620.88L564.85 595.88L564.85 545.88zM694.76 370.88L738.06 395.88L738.06 445.88L694.76 470.88L651.46 445.88L651.46 395.88zM694.76 520.88L738.06 545.88L738.06 595.88L694.76 620.88L651.46 595.88L651.46 545.88zM738.06 445.88L781.36 470.88L781.36 520.88L738.06 545.88L694.76 520.88L694.76 470.88zM867.97 70.88L911.27 95.88L911.27 145.88L867.97 170.88L824.67 145.88L824.67 95.88zM867.97 220.88L911.27 245.88L911.27 295.88L867.97 320.88L824.67 295.88L824.67 245.88zM867.97 370.88L911.27 395.88L911.27 445.88L867.97 470.88L824.67 445.88L824.67 395.88zM867.97 520.88L911.27 545.88L911.27 595.88L867.97 620.88L824.67 595.88L824.67 545.88zM911.27 295.88L954.57 320.88L954.57 370.88L911.27 395.88L867.97 370.88L867.97 320.88zM1041.18 70.88L1084.48 95.88L1084.48 145.88L1041.18 170.88L997.88 145.88L997.88 95.88zM1041.18 220.88L1084.48 245.88L1084.48 295.88L1041.18 320.88L997.88 295.88L997.88 245.88zM997.88 445.88L1041.18 470.88L1041.18 520.88L997.88 545.88L954.57 520.88L954.57 470.88zM1041.18 520.88L1084.48 545.88L1084.48 595.88L1041.18 620.88L997.88 595.88L997.88 545.88zM1084.48 145.88L1127.78 170.88L1127.78 220.88L1084.48 245.88L1041.18 220.88L1041.18 170.88zM1084.48 445.88L1127.78 470.88L1127.78 520.88L1084.48 545.88L1041.18 520.88L1041.18 470.88zM1171.09 295.88L1214.39 320.88L1214.39 370.88L1171.09 395.88L1127.78 370.88L1127.78 320.88zM1171.09 445.88L1214.39 470.88L1214.39 520.88L1171.09 545.88L1127.78 520.88L1127.78 470.88zM1257.69 -4.12L1300.99 20.88L1300.99 70.88L1257.69 95.88L1214.39 70.88L1214.39 20.88zM1300.99 70.88L1344.3 95.88L1344.3 145.88L1300.99 170.88L1257.69 145.88L1257.69 95.88zM1257.69 145.88L1300.99 170.88L1300.99 220.88L1257.69 245.88L1214.39 220.88L1214.39 170.88zM1387.6 220.88L1430.9 245.88L1430.9 295.88L1387.6 320.88L1344.3 295.88L1344.3 245.88zM1387.6 370.88L1430.9 395.88L1430.9 445.88L1387.6 470.88L1344.3 445.88L1344.3 395.88zM1430.9 -4.12L1474.2 20.88L1474.2 70.88L1430.9 95.88L1387.6 70.88L1387.6 20.88zM1474.2 70.88L1517.51 95.88L1517.51 145.88L1474.2 170.88L1430.9 145.88L1430.9 95.88zM1430.9 295.88L1474.2 320.88L1474.2 370.88L1430.9 395.88L1387.6 370.88L1387.6 320.88zM1474.2 520.88L1517.51 545.88L1517.51 595.88L1474.2 620.88L1430.9 595.88L1430.9 545.88z" stroke="rgba(6, 80, 156, 0.93)" stroke-width="2"></path></g><defs><mask id="SvgjsMask1000"><rect width="1440" height="560" fill="#ffffff"></rect></mask></defs></svg>